<svg xmlns="http://www.w3.org/2000/svg" viewBox="0 0 290 70" role="img" aria-label="BUILD">
  <rect width="100%" height="100%" fill="#000"/>
  <rect x="0" y="0" width="10" height="10" fill="#F25022"/>
  <rect x="10" y="0" width="10" height="10" fill="#F25022"/>
  <rect x="20" y="0" width="10" height="10" fill="#F25022"/>
  <rect x="30" y="0" width="10" height="10" fill="#F25022"/>
  <rect x="0" y="10" width="10" height="10" fill="#7FBA00"/>
  <rect x="40" y="10" width="10" height="10" fill="#F25022"/>
  <rect x="0" y="20" width="10" height="10" fill="#A855F7"/>
  <rect x="40" y="20" width="10" height="10" fill="#F25022"/>
  <rect x="0" y="30" width="10" height="10" fill="#FFB900"/>
  <rect x="10" y="30" width="10" height="10" fill="#E81E63"/>
  <rect x="20" y="30" width="10" height="10" fill="#FF8C00"/>
  <rect x="30" y="30" width="10" height="10" fill="#00A4EF"/>
  <rect x="0" y="40" width="10" height="10" fill="#E81E63"/>
  <rect x="40" y="40" width="10" height="10" fill="#F25022"/>
  <rect x="0" y="50" width="10" height="10" fill="#FF8C00"/>
  <rect x="40" y="50" width="10" height="10" fill="#F25022"/>
  <rect x="0" y="60" width="10" height="10" fill="#00A4EF"/>
  <rect x="10" y="60" width="10" height="10" fill="#7FBA00"/>
  <rect x="20" y="60" width="10" height="10" fill="#FFB900"/>
  <rect x="30" y="60" width="10" height="10" fill="#FF8C00"/>
  <rect x="60" y="0" width="10" height="10" fill="#A855F7"/>
  <rect x="100" y="0" width="10" height="10" fill="#A855F7"/>
  <rect x="60" y="10" width="10" height="10" fill="#FFB900"/>
  <rect x="100" y="10" width="10" height="10" fill="#A855F7"/>
  <rect x="60" y="20" width="10" height="10" fill="#E81E63"/>
  <rect x="100" y="20" width="10" height="10" fill="#A855F7"/>
  <rect x="60" y="30" width="10" height="10" fill="#FF8C00"/>
  <rect x="100" y="30" width="10" height="10" fill="#A855F7"/>
  <rect x="60" y="40" width="10" height="10" fill="#00A4EF"/>
  <rect x="100" y="40" width="10" height="10" fill="#A855F7"/>
  <rect x="60" y="50" width="10" height="10" fill="#F25022"/>
  <rect x="100" y="50" width="10" height="10" fill="#A855F7"/>
  <rect x="70" y="60" width="10" height="10" fill="#FFB900"/>
  <rect x="80" y="60" width="10" height="10" fill="#FF8C00"/>
  <rect x="90" y="60" width="10" height="10" fill="#F25022"/>
  <rect x="120" y="0" width="10" height="10" fill="#E81E63"/>
  <rect x="130" y="0" width="10" height="10" fill="#E81E63"/>
  <rect x="140" y="0" width="10" height="10" fill="#E81E63"/>
  <rect x="150" y="0" width="10" height="10" fill="#E81E63"/>
  <rect x="160" y="0" width="10" height="10" fill="#E81E63"/>
  <rect x="140" y="10" width="10" height="10" fill="#7FBA00"/>
  <rect x="140" y="20" width="10" height="10" fill="#FF8C00"/>
  <rect x="140" y="30" width="10" height="10" fill="#A855F7"/>
  <rect x="140" y="40" width="10" height="10" fill="#00A4EF"/>
  <rect x="140" y="50" width="10" height="10" fill="#FFB900"/>
  <rect x="120" y="60" width="10" height="10" fill="#FFB900"/>
  <rect x="130" y="60" width="10" height="10" fill="#FF8C00"/>
  <rect x="140" y="60" width="10" height="10" fill="#F25022"/>
  <rect x="150" y="60" width="10" height="10" fill="#A855F7"/>
  <rect x="160" y="60" width="10" height="10" fill="#E81E63"/>
  <rect x="180" y="0" width="10" height="10" fill="#00A4EF"/>
  <rect x="180" y="10" width="10" height="10" fill="#F25022"/>
  <rect x="180" y="20" width="10" height="10" fill="#7FBA00"/>
  <rect x="180" y="30" width="10" height="10" fill="#A855F7"/>
  <rect x="180" y="40" width="10" height="10" fill="#FFB900"/>
  <rect x="180" y="50" width="10" height="10" fill="#E81E63"/>
  <rect x="180" y="60" width="10" height="10" fill="#FF8C00"/>
  <rect x="190" y="60" width="10" height="10" fill="#F25022"/>
  <rect x="200" y="60" width="10" height="10" fill="#A855F7"/>
  <rect x="210" y="60" width="10" height="10" fill="#E81E63"/>
  <rect x="220" y="60" width="10" height="10" fill="#00A4EF"/>
  <rect x="240" y="0" width="10" height="10" fill="#7FBA00"/>
  <rect x="250" y="0" width="10" height="10" fill="#7FBA00"/>
  <rect x="260" y="0" width="10" height="10" fill="#7FBA00"/>
  <rect x="270" y="0" width="10" height="10" fill="#7FBA00"/>
  <rect x="240" y="10" width="10" height="10" fill="#A855F7"/>
  <rect x="280" y="10" width="10" height="10" fill="#7FBA00"/>
  <rect x="240" y="20" width="10" height="10" fill="#FFB900"/>
  <rect x="280" y="20" width="10" height="10" fill="#7FBA00"/>
  <rect x="240" y="30" width="10" height="10" fill="#E81E63"/>
  <rect x="280" y="30" width="10" height="10" fill="#7FBA00"/>
  <rect x="240" y="40" width="10" height="10" fill="#FF8C00"/>
  <rect x="280" y="40" width="10" height="10" fill="#7FBA00"/>
  <rect x="240" y="50" width="10" height="10" fill="#00A4EF"/>
  <rect x="280" y="50" width="10" height="10" fill="#7FBA00"/>
  <rect x="240" y="60" width="10" height="10" fill="#F25022"/>
  <rect x="250" y="60" width="10" height="10" fill="#A855F7"/>
  <rect x="260" y="60" width="10" height="10" fill="#E81E63"/>
  <rect x="270" y="60" width="10" height="10" fill="#00A4EF"/>
</svg>
